HIERARCHY
ROOT Hips
{
	OFFSET 0.00 0.00 0.00
	CHANNELS 6 Xposition Yposition Zposition Xrotation Yrotation Zrotation
	JOINT Spine
	{
		OFFSET 0.00000 1.75157 2.62736
		CHANNELS 3 Xrotation Yrotation Zrotation
		JOINT Spine1
		{
			OFFSET 0.00000 0.60831 3.44992
			CHANNELS 3 Xrotation Yrotation Zrotation
			JOINT Spine2
			{
				OFFSET 0.00000 0.30532 3.48981
				CHANNELS 3 Xrotation Yrotation Zrotation
				JOINT Spine3
				{
					OFFSET 0.00000 0.00000 3.50314
					CHANNELS 3 Xrotation Yrotation Zrotation
					JOINT Neck
					{
						OFFSET 0.00000 -1.31367 9.19575
						CHANNELS 3 Xrotation Yrotation Zrotation
						JOINT Head
						{
							OFFSET 0.00000 -0.83643 4.74364
							CHANNELS 3 Xrotation Yrotation Zrotation
							End Site
							{
								OFFSET 0.00000 0.00001 5.67071
							}
						}
					}
					JOINT RightShoulder
					{
						OFFSET -1.05974 -1.76624 5.72262
						CHANNELS 3 Xrotation Yrotation Zrotation
						JOINT RightArm
						{
							OFFSET -5.26340 0.00000 0.00000
							CHANNELS 3 Xrotation Yrotation Zrotation
							JOINT RightForeArm
							{
								OFFSET -10.14667 0.00000 0.00000
								CHANNELS 3 Xrotation Yrotation Zrotation
								JOINT RightHand
								{
									OFFSET -8.53343 0.00000 0.00000
									CHANNELS 3 Xrotation Yrotation Zrotation
									JOINT RightHandEnd
									{
										OFFSET -2.46135 0.00000 0.00000
										CHANNELS 3 Xrotation Yrotation Zrotation
										End Site
										{
											OFFSET -2.46135 0.00000 0.00000
										}
									}
									JOINT RightHandThumb1
									{
										OFFSET -0.98454 -1.64090 -0.65636
										CHANNELS 3 Yrotation Xrotation Zrotation
										End Site
										{
											OFFSET -2.37748 -0.63704 0.00000
										}
									}
								}
							}
						}
					}
					JOINT LeftShoulder
					{
						OFFSET 1.05974 -1.76624 5.72262
						CHANNELS 3 Xrotation Yrotation Zrotation
						JOINT LeftArm
						{
							OFFSET 5.26340 0.00000 0.00000
							CHANNELS 3 Xrotation Yrotation Zrotation
							JOINT LeftForeArm
							{
								OFFSET 10.14667 0.00000 0.00000
								CHANNELS 3 Xrotation Yrotation Zrotation
								JOINT LeftHand
								{
									OFFSET 8.53343 0.00000 0.00000
									CHANNELS 3 Xrotation Yrotation Zrotation
									JOINT LeftHandEnd
									{
										OFFSET 2.46135 0.00000 0.00000
										CHANNELS 3 Xrotation Yrotation Zrotation
										End Site
										{
											OFFSET 2.46135 0.00000 0.00000
										}
									}
									JOINT LeftHandThumb1
									{
										OFFSET 0.98454 -1.64090 -0.65636
										CHANNELS 3 Yrotation Xrotation Zrotation
										End Site
										{
											OFFSET 2.37748 -0.63704 0.00000
										}
									}
								}
							}
						}
					}
				}
			}
		}
	}
	JOINT RightUpLeg
	{
		OFFSET -3.14391 0.00000 -0.91845
		CHANNELS 3 Xrotation Yrotation Zrotation
		JOINT RightLeg
		{
			OFFSET 0.00000 0.00000 -14.43197
			CHANNELS 3 Xrotation Yrotation Zrotation
			JOINT RightFoot
			{
				OFFSET 0.00000 0.00000 -14.31693
				CHANNELS 3 Xrotation Yrotation Zrotation
				JOINT RightToeBase
				{
					OFFSET 0.00000 -4.51635 -1.64382
					CHANNELS 3 Xrotation Yrotation Zrotation
					End Site
					{
						OFFSET 0.00000 -2.54339 -0.00000
					}
				}
			}
		}
	}
	JOINT LeftUpLeg
	{
		OFFSET 3.14391 0.00000 -0.91845
		CHANNELS 3 Xrotation Yrotation Zrotation
		JOINT LeftLeg
		{
			OFFSET 0.00000 0.00000 -14.43197
			CHANNELS 3 Xrotation Yrotation Zrotation
			JOINT LeftFoot
			{
				OFFSET 0.00000 0.00000 -14.31693
				CHANNELS 3 Xrotation Yrotation Zrotation
				JOINT LeftToeBase
				{
					OFFSET 0.00000 -4.51635 -1.64382
					CHANNELS 3 Xrotation Yrotation Zrotation
					End Site
					{
						OFFSET 0.00000 -2.54339 -0.00000
					}
				}
			}
		}
	}
}
MOTION
Frames: 15
Frame Time: 0.008342
 -6.0640 -30.2751 31.5486 -2.9511 -6.2162 -45.4899 -0.9903 2.8692 0.3485 -0.3290 0.0782 -0.0327 -0.4103 1.7209 -0.1144 0.8600 -0.4073 -0.1076 -2.5012 -7.9376 5.8478 1.9512 1.2566 14.2929 -16.4424 14.1551 16.3873 -78.0851 -6.8205 25.2404 -0.0000 0.0001 93.3815 3.2531 60.3851 -4.9192 0.0000 0.0000 -0.0000 0.0000 -0.0000 0.0000 2.0935 11.9731 -16.1330 31.2225 44.4287 -23.4858 -0.0001 -0.0000 -120.5175 32.4233 -51.3433 -8.0608 -0.0000 0.0000 -0.0000 -0.0000 0.0000 -0.0000 -17.7603 12.5990 -42.7313 28.7558 0.0000 0.0000 -15.6016 11.7153 -28.1012 -24.5650 0.0000 -0.0000 20.1819 9.5726 40.4644 -0.8521 0.0000 -0.0000 13.8631 22.9761 9.2635 -27.0591 0.0000 -0.0000
 -6.1632 -30.2878 31.5057 -3.2002 -6.1282 -47.9835 -0.9705 2.9154 0.3965 -0.3235 0.1271 -0.0249 -0.4283 2.0076 -0.1805 0.8237 -0.3118 -0.2219 -3.2353 -7.7410 5.0739 2.1476 1.1734 13.1808 -16.1400 13.5086 16.3835 -79.2621 -7.1226 24.5457 -0.0000 0.0001 93.5938 2.0953 60.9718 -5.5010 0.0000 0.0000 0.0000 0.0000 0.0000 -0.0000 2.0619 11.7836 -16.0883 31.0695 44.4425 -23.7614 -0.0001 -0.0000 -120.6085 32.4353 -51.3648 -7.8378 -0.0000 -0.0000 -0.0000 0.0000 -0.0000 0.0000 -17.6222 12.0943 -42.8730 28.9946 0.0000 0.0000 -15.9680 11.6727 -27.5825 -24.2688 0.0000 -0.0000 20.3242 9.8929 40.3921 -0.1014 0.0000 -0.0000 13.6175 23.6496 9.7589 -27.9513 0.0000 -0.0000
 -6.2710 -30.2959 31.4679 -3.4260 -6.0830 -50.4833 -1.0063 2.9559 0.4664 -0.3508 0.1754 -0.0160 -0.4244 2.3619 -0.2620 0.7930 -0.1968 -0.3572 -3.9931 -7.5999 4.2159 2.3606 1.1038 12.0200 -15.8061 12.7247 16.3339 -80.4123 -7.4188 23.8521 -0.0000 0.0001 93.8437 0.8788 61.4917 -6.0126 -0.0000 -0.0000 -0.0000 -0.0000 -0.0000 0.0000 2.0167 11.6166 -16.0198 30.9248 44.3879 -23.9683 -0.0001 -0.0000 -120.6917 32.4025 -51.3709 -7.7112 0.0000 -0.0000 0.0000 0.0000 -0.0000 -0.0000 -17.4884 11.4895 -42.6111 29.0587 0.0000 0.0000 -16.3822 11.5260 -26.8054 -24.0575 0.0000 -0.0000 20.3032 10.1268 40.1592 0.8990 0.0000 0.0000 13.4695 24.2481 10.1988 -29.1132 0.0000 -0.0000
 -6.3902 -30.2987 31.4372 -3.6289 -6.0292 -52.9700 -1.0601 2.9685 0.5513 -0.4146 0.2214 -0.0040 -0.3913 2.7687 -0.3693 0.7679 -0.0666 -0.5112 -4.7742 -7.4999 3.2719 2.6003 1.0345 10.8125 -15.4209 11.7981 16.2255 -81.5418 -7.7192 23.1765 -0.0000 0.0001 94.1226 -0.4012 61.9464 -6.4339 0.0000 0.0000 -0.0000 0.0000 0.0000 -0.0000 1.9676 11.4766 -15.9343 30.7848 44.2623 -24.1070 -0.0001 -0.0000 -120.7638 32.3367 -51.3507 -7.6752 0.0000 -0.0000 -0.0000 0.0000 0.0000 0.0000 -17.2985 10.7543 -41.9906 28.9075 0.0000 0.0000 -16.8078 11.2964 -25.8347 -23.8578 0.0000 -0.0000 20.1482 10.2193 39.7831 2.1714 0.0000 0.0000 13.4781 24.7435 10.5304 -30.5528 0.0000 -0.0000
 -6.5207 -30.2943 31.4149 -3.7874 -5.9600 -55.4326 -1.1409 2.9442 0.6494 -0.5114 0.2428 0.0082 -0.3216 3.2343 -0.4996 0.7480 0.0838 -0.6840 -5.5840 -7.4445 2.2330 2.8808 0.9639 9.5626 -14.9827 10.7219 16.0568 -82.6467 -8.0219 22.5151 -0.0000 0.0001 94.4344 -1.7583 62.3353 -6.7409 0.0000 0.0000 0.0000 0.0000 -0.0000 0.0000 1.9222 11.3485 -15.8452 30.6448 44.0766 -24.1804 -0.0001 -0.0000 -120.8206 32.2484 -51.2956 -7.7219 0.0000 0.0000 0.0000 0.0000 0.0000 0.0000 -17.0574 9.8786 -41.0279 28.5274 0.0000 0.0000 -17.2034 11.0076 -24.7679 -23.5848 0.0000 -0.0000 19.8325 10.1340 39.2560 3.7515 0.0000 0.0000 13.6772 25.0971 10.7327 -32.2534 0.0000 -0.0000
 -6.6595 -30.2814 31.4011 -3.8895 -5.8937 -57.8565 -1.2581 2.8952 0.7537 -0.6439 0.2252 0.0134 -0.2143 3.7549 -0.6563 0.7344 0.2517 -0.8746 -6.4292 -7.4227 1.1054 3.2197 0.8842 8.2716 -14.4942 9.4995 15.8327 -83.7202 -8.3385 21.8643 -0.0000 0.0001 94.7783 -3.2057 62.6560 -6.9074 -0.0000 -0.0000 0.0000 -0.0000 -0.0000 0.0000 1.8688 11.2314 -15.7507 30.5159 43.8394 -24.1895 -0.0001 -0.0000 -120.8632 32.1545 -51.1900 -7.8255 0.0000 -0.0000 -0.0000 -0.0000 0.0000 0.0000 -16.7955 8.8886 -39.7485 27.9411 0.0000 0.0000 -17.5403 10.6816 -23.7016 -23.1575 0.0000 -0.0000 19.3154 9.8633 38.5281 5.6667 0.0000 0.0000 14.0835 25.2725 10.8179 -34.1668 0.0000 -0.0000
 -6.8066 -30.2579 31.3955 -3.9122 -5.8069 -60.2210 -1.3962 2.8074 0.8468 -0.8084 0.1664 0.0137 -0.0688 4.3015 -0.8355 0.7240 0.4389 -1.0853 -7.3098 -7.4207 -0.1168 3.6297 0.7849 6.9440 -13.9455 8.1458 15.5503 -84.7607 -8.6734 21.2203 -0.0000 0.0001 95.1495 -4.7310 62.9186 -6.9408 -0.0000 0.0000 -0.0000 0.0000 -0.0000 -0.0000 1.8271 11.1010 -15.6659 30.3910 43.5739 -24.1544 -0.0001 -0.0000 -120.8865 32.0547 -51.0343 -7.9730 0.0000 -0.0000 0.0000 0.0000 -0.0000 0.0000 -16.4905 7.7625 -38.1988 27.1452 0.0000 0.0000 -17.7841 10.3413 -22.7354 -22.5169 0.0000 -0.0000 18.5926 9.3668 37.5925 7.9393 0.0000 0.0000 14.7165 25.2272 10.7565 -36.2084 0.0000 -0.0000
 -6.9572 -30.2230 31.3959 -3.8438 -5.7256 -62.5143 -1.5597 2.6931 0.9169 -1.0056 0.0698 0.0085 0.1068 4.8468 -1.0508 0.7135 0.6390 -1.3053 -8.2213 -7.4124 -1.4195 4.1181 0.6511 5.5777 -13.3428 6.6889 15.2342 -85.7568 -9.0135 20.5685 -0.0000 0.0001 95.5440 -6.3415 63.1294 -6.8336 0.0000 0.0000 -0.0000 0.0000 0.0000 -0.0000 1.7942 10.9467 -15.5950 30.2800 43.3055 -24.0887 -0.0001 -0.0000 -120.8920 31.9657 -50.8251 -8.1238 0.0000 -0.0000 -0.0000 0.0000 -0.0000 0.0000 -16.1848 6.5339 -36.4153 26.1970 0.0000 0.0000 -17.9243 10.0035 -21.9486 -21.6354 0.0000 -0.0000 17.6268 8.6608 36.4283 10.5702 0.0000 0.0000 15.5765 24.9131 10.5435 -38.2498 0.0000 -0.0000
 -7.1068 -30.1762 31.3999 -3.6665 -5.6710 -64.7249 -1.7534 2.5561 0.9504 -1.2364 -0.0610 -0.0057 0.3045 5.3587 -1.3007 0.7004 0.8479 -1.5327 -9.1576 -7.3738 -2.7868 4.6880 0.4694 4.1701 -12.6852 5.1640 14.8906 -86.7013 -9.3700 19.8955 -0.0000 0.0001 95.9578 -8.0029 63.3011 -6.6151 0.0000 0.0000 -0.0000 -0.0000 -0.0000 0.0000 1.7752 10.7571 -15.5441 30.1797 43.0541 -24.0044 -0.0001 -0.0000 -120.8831 31.8779 -50.5602 -8.2561 0.0000 -0.0000 -0.0000 0.0000 -0.0000 0.0000 -15.9138 5.2184 -34.4490 25.1474 0.0000 0.0000 -17.9548 9.6825 -21.3946 -20.5217 0.0000 -0.0000 16.3921 7.7580 35.0633 13.5410 0.0000 0.0000 16.6565 24.2748 10.1453 -40.1167 0.0000 -0.0000
 -7.2538 -30.1183 31.4044 -3.3767 -5.6320 -66.8495 -1.9543 2.3929 0.9296 -1.4905 -0.2063 -0.0236 0.5088 5.7863 -1.5874 0.6795 1.0638 -1.7605 -10.0952 -7.2798 -4.1993 5.3255 0.2256 2.7223 -11.9842 3.6105 14.5556 -87.5728 -9.7114 19.1833 -0.0000 0.0001 96.3869 -9.7180 63.4413 -6.2946 0.0000 -0.0000 0.0000 -0.0000 -0.0000 0.0000 1.7810 10.5145 -15.5182 30.0900 42.8474 -23.9234 -0.0001 -0.0000 -120.8612 31.7858 -50.2462 -8.3459 0.0000 -0.0000 -0.0000 -0.0000 0.0000 -0.0000 -15.6676 3.8258 -32.3694 24.0477 0.0000 0.0000 -17.8867 9.3833 -21.0795 -19.2081 0.0000 -0.0000 14.9312 6.6782 33.5795 16.7859 0.0000 0.0000 17.9415 23.2587 9.5071 -41.5972 0.0000 -0.0000
 -7.3966 -30.0509 31.4067 -2.9766 -5.6051 -68.9017 -2.1596 2.1982 0.8662 -1.7329 -0.3523 -0.0464 0.6911 6.1107 -1.9172 0.6514 1.2705 -1.9788 -11.0126 -7.1018 -5.6290 6.0121 -0.0974 1.2276 -11.2358 2.0759 14.2291 -88.3640 -10.0545 18.4195 -0.0000 0.0001 96.8255 -11.4544 63.5638 -5.8963 -0.0000 -0.0000 -0.0000 0.0000 -0.0000 -0.0000 1.8070 10.2122 -15.5254 30.0166 42.7076 -23.8513 -0.0001 -0.0000 -120.8339 31.6686 -49.8872 -8.3849 0.0000 -0.0000 -0.0000 0.0000 0.0000 0.0000 -15.4442 2.3726 -30.2436 22.9522 0.0000 0.0000 -17.7417 9.1007 -20.9665 -17.7485 0.0000 -0.0000 13.2973 5.4546 32.0639 20.2216 0.0000 0.0000 19.3616 21.8414 8.6257 -42.4692 0.0000 -0.0000
 -7.5326 -29.9776 31.4047 -2.4987 -5.6038 -70.9082 -2.3608 1.9915 0.7614 -1.9608 -0.4688 -0.0716 0.8496 6.2935 -2.2781 0.6125 1.4693 -2.1857 -11.8872 -6.8309 -7.0505 6.7191 -0.5002 -0.3110 -10.4588 0.5921 13.9306 -89.0529 -10.3962 17.5891 -0.0000 0.0001 97.2765 -13.1837 63.6636 -5.4478 -0.0000 -0.0000 -0.0000 -0.0000 -0.0000 0.0000 1.8521 9.8521 -15.5592 29.9554 42.6343 -23.7953 -0.0001 -0.0000 -120.8058 31.5025 -49.4853 -8.3703 -0.0000 0.0000 -0.0000 -0.0000 -0.0000 -0.0000 -15.2592 0.9147 -28.1294 21.9320 0.0000 0.0000 -17.5557 8.8257 -20.9839 -16.1986 0.0000 -0.0000 11.5424 4.1596 30.5632 23.7525 0.0000 0.0000 20.7933 20.0678 7.5840 -42.5439 0.0000 -0.0000
 -7.6617 -29.9019 31.3976 -1.9748 -5.6206 -72.8987 -2.5503 1.7793 0.6329 -2.1524 -0.5420 -0.0970 0.9738 6.3373 -2.6644 0.5666 1.6524 -2.3751 -12.6989 -6.4682 -8.4479 7.4132 -0.9790 -1.8919 -9.6697 -0.8311 13.6714 -89.6148 -10.7225 16.7040 -0.0000 0.0001 97.7355 -14.8721 63.7524 -4.9882 -0.0000 -0.0000 -0.0000 0.0000 -0.0000 -0.0000 1.9202 9.4321 -15.6279 29.8896 42.6220 -23.7467 -0.0001 -0.0000 -120.7848 31.2562 -49.0470 -8.3141 -0.0000 -0.0000 -0.0000 -0.0000 -0.0000 -0.0000 -15.0969 -0.5117 -26.0895 21.0270 0.0000 0.0000 -17.3608 8.5420 -21.0353 -14.6121 0.0000 -0.0000 9.7314 2.8463 29.1117 27.3006 0.0000 0.0000 22.0877 18.0590 6.5027 -41.7284 0.0000 -0.0000
 -7.7877 -29.8273 31.3859 -1.4469 -5.6039 -74.9058 -2.6871 1.5648 0.4983 -2.2847 -0.5604 -0.1160 1.0608 6.2525 -3.0672 0.5152 1.8220 -2.5505 -13.4239 -6.0358 -9.8133 8.0542 -1.5222 -3.5054 -8.8756 -2.1805 13.4357 -90.0403 -11.0679 15.7517 -0.0000 0.0001 98.2067 -16.5360 63.8230 -4.4797 0.0000 0.0000 -0.0000 -0.0000 -0.0000 0.0000 2.0021 8.9455 -15.7241 29.8220 42.6581 -23.7024 -0.0001 -0.0000 -120.7780 30.9054 -48.5722 -8.2329 -0.0000 -0.0000 0.0000 0.0000 -0.0000 -0.0000 -14.8774 -1.8800 -24.1801 20.2420 0.0000 0.0000 -17.1847 8.2325 -21.0147 -13.0348 0.0000 -0.0000 7.9802 1.5598 27.7421 30.7835 0.0000 0.0000 23.1259 15.9891 5.5004 -40.0729 0.0000 -0.0000
 -7.9108 -29.7568 31.3705 -0.9518 -5.5514 -76.9572 -2.7632 1.3698 0.3670 -2.3595 -0.5458 -0.1339 1.1140 6.0902 -3.4638 0.4640 1.9734 -2.7073 -14.0494 -5.5574 -11.1520 8.6071 -2.1116 -5.1418 -8.0966 -3.4844 13.2324 -90.3034 -11.4125 14.7695 -0.0000 0.0001 98.6839 -18.0528 63.8829 -4.0554 -0.0000 -0.0000 -0.0000 0.0000 -0.0000 -0.0000 2.0909 8.4049 -15.8567 29.7302 42.7098 -23.6208 -0.0001 -0.0000 -120.7984 30.4131 -48.0508 -8.1635 -0.0000 0.0000 0.0000 -0.0000 -0.0000 0.0000 -14.5899 -3.1491 -22.4203 19.5894 0.0000 0.0000 -17.0450 7.8885 -20.8465 -11.5016 0.0000 -0.0000 6.3153 0.3542 26.4445 34.1663 0.0000 0.0000 23.8181 14.0593 4.7158 -37.7782 0.0000 -0.0000
